<svg xmlns="http://www.w3.org/2000/svg" width="512" height="512" viewBox="0 0 512 512">
  <defs>
    <clipPath id="spark">
      <path d="M256 56 Q308 204 456 256 Q308 308 256 456 Q204 308 56 256 Q204 204 256 56 Z"/>
    </clipPath>
  </defs>
  <rect width="512" height="512" rx="116" fill="#0c110d"/>
  <path d="M256 56 Q308 204 456 256 Q308 308 256 456 Q204 308 56 256 Q204 204 256 56 Z" fill="#1ed760"/>
  <g clip-path="url(#spark)" fill="none" stroke="#0c110d" stroke-opacity="0.32" stroke-width="7">
    <circle cx="256" cy="256" r="64"/>
    <circle cx="256" cy="256" r="104"/>
    <circle cx="256" cy="256" r="144"/>
  </g>
  <circle cx="256" cy="256" r="30" fill="#0c110d"/>
  <path d="M376 92 Q385 123 416 132 Q385 141 376 172 Q367 141 336 132 Q367 123 376 92 Z" fill="#f2fff7"/>
</svg>
